<?xml version="1.0" encoding="UTF-8" standalone="no"?><!DOCTYPE svg PUBLIC "-//W3C//DTD SVG 1.1//EN" "http://www.w3.org/Graphics/SVG/1.1/DTD/svg11.dtd"><svg width="100%" height="100%" viewBox="0 0 3667 5959" version="1.1" xmlns="http://www.w3.org/2000/svg" xmlns:xlink="http://www.w3.org/1999/xlink" xml:space="preserve" xmlns:serif="http://www.serif.com/" style="fill-rule:evenodd;clip-rule:evenodd;stroke-linecap:round;stroke-linejoin:round;stroke-miterlimit:1.5;"><g id="Ebene1"><rect x="0" y="-0" width="3666.67" height="5958.33" style="fill:#433633;"/><path d="M3075.23,2342.96c645.044,819.153 565.449,1959.26 -177.633,2544.4c-743.083,585.143 -1870.07,395.156 -2515.11,-423.997c-645.044,-819.152 -565.449,-1959.26 177.633,-2544.4c743.082,-585.142 1870.07,-395.156 2515.11,423.997Z" style="fill:url(#_Radial1);"/><path d="M1595.85,5533.77l337.002,-98.099l-194.975,57.689l-142.027,40.41Zm-0,-2748.43l142.027,-46.256l340.907,-139.618l240.198,-92.609l195.749,-87.946l123.302,-56.089l169.171,-57.257l220.032,-88.599l168.222,-81.753l118.442,-50.887l7.3,21.416l0.844,159.488l8.334,228.291l15.729,313.031l13.082,326.074l12.247,267.259l5.182,422.146l-7.909,369.843l-14.299,233.237l-19.604,273.899l-93.409,83.54l-119.575,88.104l-114.903,72.983l-109.672,65.83l-400.235,211.957l-170.083,94.017l-211.188,69.076l-178.424,50.222l-199.44,58.619l-142.027,40.41l-0,-2748.43Z" style="fill:#433633;stroke:#000;stroke-width:4.17px;"/><path d="M320.074,519.443l326.299,-77.995l307.365,-55.329l291.62,-57.916l275.272,-50.996l245.848,-38.539l230.957,-34.708l281.833,-14.79l290.734,109.621l206.598,88.139l272.928,98.068l237.515,102.084l21.889,35.27l9.162,201.285l8.885,180.935l5.828,146.858l11.142,244.157l9.95,188.822l6.117,150.525l10.278,183.631l7.078,168.309l2.266,178.432l3.294,236.363l-1.415,154.218l4.856,186.937l10.788,282.712l4.245,180.121l2.38,242.56l3.381,292.669l-3.729,339.138l-2.51,229.218l-31.041,276.417l-17.763,272.564l-15.088,81.934l-156.465,50.574l-232.259,70.281l-293.788,78.379l-340.857,81.136l-203.27,65.497l-177.547,49.649l-194.975,57.689l-142.027,40.41l-0,-131.391l-5.353,-3.008l-228.186,5.896l-235.148,-144.161l-188.393,-128.691l-203.248,-141.1l-196.873,-139.133l-218.266,-150.913l-2.524,-223.802l-32.266,-33.841l0.595,-189.719l0.907,-212.117l0.564,-272.61l1.147,-314.799l-3.473,-299.453l-4.94,-333.951l-4.028,-381.334l-1.531,-420.795l5.305,-376.051l7.376,-355.589l8.792,-295.548l9.423,-272.571l4.602,-163.401l-0.494,-33.395l10.238,-2.852Zm1275.77,2265.9l142.027,-46.256l340.907,-139.618l240.198,-92.609l195.749,-87.946l123.302,-56.089l169.171,-57.257l220.032,-88.599l168.222,-81.753l118.442,-50.887l7.3,21.416l0.844,159.488l8.334,228.291l15.729,313.031l13.082,326.074l12.247,267.259l5.182,422.146l-7.909,369.843l-14.299,233.237l-19.604,273.899l-91.576,87.292l-119.46,87.451l-153.788,96.338l-209.807,115.626l-250.556,130.018l-195.95,104.788l-197.928,63.994l-178.424,50.222l-199.44,58.619l-142.027,40.41l-0,-2748.43Zm-280.122,-354.114l28.781,9.149l15.292,11.434l-4.952,134.4l-5.704,211.004l-3.044,125.46l1.348,209.118l-0.163,191.53l7.295,193.46l2.846,171.604l6.672,218.492l3.571,161.738l5.568,167.112l8.552,307.239l5.928,174.423l9.615,318.093l-0.079,56.553l-44.682,-3.409l-11.843,-10.953l-6.009,-116.996l-5.53,-175.272l-7.45,-208.921l-6.671,-245.314l2.639,-181.461l4.603,-206.409l0.96,-213.345l-0.208,-181.058l-0.454,-167.955l-0.228,-160.651l-5.1,-160.669l0.671,-167.3l1.94,-141.273l3.623,-158.659l-7.787,-161.164Zm-955.527,-1856.75l302,104.6l310.582,104.621l249.241,89.793l56.321,24.415l29.932,29.523l7.213,75.526l-7.182,159.066l-7.456,117.866l2.513,67.408l11.021,188.37l0.687,120.987l0.103,121.994l-4.315,125.884l-3.634,214.029l-5.344,199.846l-6.079,227.949l-12.499,263.514l0.309,234.089l1.547,272.222l-0.886,269.462l1.992,240.45l1.073,254.989l2.377,333.269l1.611,214.36l4.004,241.621l-0.957,105.765l-2.784,76.978l-266.122,-169.057l-162.728,-102.567l-188.203,-123.466l-225.338,-154.488l-68.098,-49.14l-13.477,-116.584l-7.361,-180.318l-0.611,-221.074l-2.13,-230.033l-3.353,-243.665l-5.044,-282.87l-2.899,-242.593l-0.447,-223.671l-4.695,-271.9l-1.693,-335.831l-5.367,-327.202l3.093,-312.591l-3.591,-272.873l6.884,-280.03l19.79,-338.643Zm1060.48,1870.71l-46.208,-48.403l76.603,-17.311l124.097,-12.266l125.073,-13.089l141.758,-15.054l171.824,-15.822l162.69,-30.747c0,0 225.838,-39.873 234.15,-44.685c8.312,-4.813 232.522,-47.086 232.522,-47.086c-0,-0 183.788,-50.247 191.102,-53.343c7.313,-3.096 201.379,-61.106 201.379,-61.106l102.221,-40.688l101.884,-28.253l48.077,-0.518l30.949,17.083l-30.375,30.108l-121.38,34.137l-186.304,47.825l-146.641,39.657l-164.476,40.308l-212.256,41.735l-148.013,33.23l-177.327,32.49l-203.859,44.045l-122.973,17.132l-155.59,21.297l-128.29,16.796l-100.637,12.528Zm-62.541,-77.122l-13.463,-68.469l27.269,-23.187l95.586,-4.63l142.587,-5.215l174.482,-15.653l178.644,-25.177l185.183,-30.102l211.899,-50.653l215.715,-48.633l222.703,-60.647l174.067,-51.268l89.579,-23.693l93.275,-34.137l106.931,-44.838l12.297,16.793l-3.7,58.486l-94.101,52.768l-113.415,48.876l-176.231,57.359l-201.929,55.733l-262.924,63.546l-172.981,28.989l-235.76,42.026l-279.396,28.59l-123.398,12.657l-149.413,17.24l-103.506,3.239Zm22.331,-1398.02l43.733,-23.82l52.712,-9.177l201.665,-39.895l288.448,-43.789l202.429,-26.293l259.142,-41.993l236.994,-38.703l276.512,-52.885l300.38,-46.162l12.83,27.92l25.47,50.615l15.254,170.912l10.954,148.224l-5.533,235.804l-6.972,250.31l-5.99,152.365l-9.788,154.732l-225.435,105.017l-432.861,122.8l-516.366,114.971l-411.413,55.429l-345.778,3.581l5.814,-413.166l-3.345,-297.359l8.306,-254.917l2.344,-201.86l20.494,-102.661Zm-990.63,-424.457l386.648,134.456l309.489,113.414l265.588,103.339l563.915,-73.281l356.382,-54.609l540.783,-87.256c-0,0 381.231,-63.985 392.076,-70.597c10.844,-6.612 -143.324,-74.752 -143.324,-74.752l-94.469,-47.681l-218.737,-85.778l-249.709,-82.003l-250.995,-86.776l-62.002,-7.572l-121.552,17.855l-198.34,20.296l-258.051,35.807l-249.96,45.181l-148.142,29.726l-163.366,36.063l-188.848,43.312l-247.061,51.099l-220.325,39.757Z" style="fill:#fffce8;stroke:#fffce8;stroke-width:4.17px;"/><path d="M1869.95,2986.21l2.726,-43.103l9.644,-15.334l56.639,-29.442l44.988,17.65l15.052,36.256l1.906,99.767l7.503,54.569l-0.595,110.428l-3.622,122.194l-12.103,176.89l-17.439,189.079l-27.015,30.178l-29.349,2.13l-25.245,5.805l-24.241,-10.075l-10.9,-29.729l-2.171,-42.843l-25.458,-47.163l-15.148,-20.319l2.858,-37.969l34.923,-54.163l8.577,-70.633l3.31,-124.492l3.286,-152.963l-15.662,-26.614l-10.41,-30.268l2.804,-37.119l8.141,-49.308l7.62,-12.214l9.381,-11.195Zm-17.715,556.608l6.023,17.874l-2.273,35.934l-8.542,3.468l-7.05,-9.557l-2.967,-26.061l5.654,-16.406l9.155,-5.252Zm43.127,-568.667l40.045,-19.673l30.391,3.061l8.448,54.059l5.984,64.152l-3.013,69.278l-40.69,29.882l-40.083,-23.034l-3.87,-73.699l2.788,-104.026Zm-27.888,51.191l6.432,35.426l-8.26,36.774l-7.06,-25.501l-1.221,-23.992l10.109,-22.707Z" style="fill:#fffce8;stroke:#fffce8;stroke-width:4.17px;"/><path d="M1655.96,1282.8l47.132,27.239l24.011,30.9l3.831,79.846l6.942,100.542l-1.124,109.939l-0.487,137.311l-7.504,134.817l-14.663,123.773l-8.074,73.627l-31.878,23.265l-35.286,1.526l-31.358,9.632l-33.55,-15.105l-18.816,-37.405l2.045,-32.327l-46.526,-69.222l0.451,-34.136l39.85,-46.677l16.65,-79.575l2.411,-38.112l-3.856,-47.049l3.105,-140.904l1.89,-51.469l-26.776,-30.392l-13.186,-29.191l6.788,-31.685l10.211,-31.81l-0.556,-23.609l17.113,-16.683l6.021,-30.368l-1.836,-19.589l21.368,-19.148l31.297,-14.077l34.36,-13.884Zm-10.573,59.119l34.093,1.132l17.89,25.047l11.968,64.645l-0.826,50.853l-4.59,50.957l-16.264,19.47l-29.932,8.697l-34.175,-5.236l-21.107,-17.393l-4.485,-58.705l0.596,-58.042l-2.706,-49.027l15.928,-24.958l33.61,-7.44Z" style="fill:#fffce8;stroke:#fffce8;stroke-width:4.17px;"/></g><defs><radialGradient id="_Radial1" cx="0" cy="0" r="1" gradientUnits="userSpaceOnUse" gradientTransform="matrix(1154.72,1418.94,-1309.19,1071.34,1728.86,3403.16)"><stop offset="0" style="stop-color:#26c485;stop-opacity:1"/><stop offset="1" style="stop-color:#b3b3b3;stop-opacity:0"/></radialGradient></defs></svg>